# xmcd
#
# Track frame offsets:
#	182
#	26717
#	52745
#	68805
#	91495
#	109887
#	130410
#	151357
#	174395
#	195945
#	213315
#	244682
#	260705
#
# Disc length: 3788
#
# Revision: 1
# Processed by: cddbd v1.5.1PL0 Copyright (c) Steve Scherf et al.
# Submitted via: dBpowerAMP V4.0
# Normalized: r0:TRMNUM
#
DISCID=b00eca0d
DTITLE=Laurent Voulzy - Carib Islander
DYEAR=1993
DGENRE=Acapella
TTITLE0=Caché derrière
TTITLE1=La cantique mécanique
TTITLE2=Belle-Île-En-Mer, Marie Galante (remix)
TTITLE3=Le rêve du pêcheur
TTITLE4=Liebe
TTITLE5=Bopper en larmes
TTITLE6=Paradoxal systême
TTITLE7=Les nuits sans Kim Wilde
TTITLE8=Carib Islander
TTITLE9=Ta plage Beach Boy
TTITLE10=Le soleil donne (adaptation anglaise - Pete Brown)
TTITLE11=Le pouvoir des fleurs
TTITLE12=My Song Of You
EXTD=
EXTT0=
EXTT1=
EXTT2=
EXTT3=
EXTT4=
EXTT5=
EXTT6=
EXTT7=
EXTT8=
EXTT9=
EXTT10=
EXTT11=
EXTT12=
PLAYORDER=
